<svg id="Lager_1" data-name="Lager 1" xmlns="http://www.w3.org/2000/svg" viewBox="0 0 156.22 35.33"><defs><style>.cls-1{fill:#fff;}</style></defs><title>dynamisk-idyll-logotyp</title><path class="cls-1" d="M155.73,18.08c.05,0,.44.05.47,0s-.27-.42-.13-.59-.32.14-.39.12.37-.37.32-.36-.19.09-.26.11a2.26,2.26,0,0,0-.3.08c-.12,0-.21.2-.37.29a10,10,0,0,1-1.72.66c-.14,0-.46.26-.6.31s-.25,0-.41.06c-.56.16-1.14.31-1.74.44-.08,0-.28.16-.36.18s-.06-.11-.15-.09l-.81.2c-.32.06-.62.13-.93.16-.64.06-1.55.28-2.12.35a7.48,7.48,0,0,1-2.74-.08c-.11,0-.57.1-.59,0s-.26-.21-.35-.2-.19-.07-.29-.09a1,1,0,0,1-.41-.15,3.58,3.58,0,0,1-.35-.11s-.22,0-.25,0,0-.15,0-.17-.42-.18-.56-.28-.06-.19-.16-.27a3,3,0,0,1-.7-.78,4,4,0,0,1-.4-1.37,6.72,6.72,0,0,1-.13-1.23c0-.13,0-.27,0-.4s-.12-.3-.07-.31.12-.27.14-.52a3.76,3.76,0,0,1,.1-.55,6.42,6.42,0,0,1,.29-1.08,28.37,28.37,0,0,1,3.9-6.55c.11-.18.14-.4.27-.63,0-.06.27-.18.34-.32s0-.14,0-.18.26-.07.29-.14-.1-.15-.08-.21c.12-.38.12-.72-.18-.9a.72.72,0,0,0-.7-.07.09.09,0,0,0,0,0,3.15,3.15,0,0,0-1.19,1.42c-.12-.1-.07,0-.24,0-.35.76-2.13,3.14-2.25,3.76-.12-.12-.11,0-.23.05.05.51-.59.59-.42,1l0,0a1.21,1.21,0,0,0-.61.9c-1.51,2.23-2.91,4.27-3.31,4.71-.8.88-3.07,4.24-3.37,3.22s2.15-5.79,2.76-7.16,3.22-7.83,4.54-9.07.56-1,.28-1.29-.45-.56-1-.39-.68,1.12-.68,1.12l-.49,1,0-.07a4.48,4.48,0,0,0-.52,1.15v0c-.18-.19,0,.2-.18,0-.16.5-.34.53-.51,1.11-.18-.06.07-.15.07-.23-.19.16-.46.43-.38.69-.1,0-.1,0-.18-.06-.05.18.06.22,0,.36-.18-.08-.15.08-.24.11.26.34-.32.57-.39.93,0,.09.08,0,.18,0-.06.1-.14.22-.24.11.14.25-.14.2-.08.53-.1,0-.1-.06-.18-.07,0,.14.11.14.05.3-.24-.31-.27.23-.19.47-.1-.11-.19,0-.24.11.1,0,.11,0,.12-.12.17.1-.1.4-.19.23,0,.36-.1.33-.14.71h0c-.52,1.09-1.17,2.53-1.76,3.91a32.76,32.76,0,0,1-4.9,5.77c.45-1.33,1.15-2.79,1.71-4.19,0-.07-.1-.05-.11-.11.19,0,.07-.15.27-.06a8.13,8.13,0,0,1,1.05-2c.08-.15,0-.38.11-.49s.39-.27.39-.5c0-.49-.6-.55-1.16-.72a25.51,25.51,0,0,0-3.51,3.72l0,0c-1.35,1.31-2.69,4-4.06,5.12-.43-.52.56-1.33.31-1.42a4.76,4.76,0,0,0,1-2.26c.15.14.08-.11.22-.11a15.32,15.32,0,0,1,1-2.56c.35-.3.41-.43.57-1.2.29-.47-1-1.1-1.74-.89-.5.2-1.06,0-1.56,0v-.09c-.16,0-.13,0-.1.1l-.12,0c.07-.16,0-.45.16-.54s-.16.23.11.18c0-.32-.47-.72,0-.89,0,.21-.19.41,0,.47-.09-.95.71-2.65.23-3.22.21-.41.21-1.06.32-1.23-.61.11-.46-1.11-.71-1.36-.16,0,0,.07-.17.18-.27-.16.16-.49-.18-.24.16-.39-.11-.2,0-.53-.21,0-.22,0-.34-.1.13-.19,0-.17-.11-.06,0-.09,0-.44-.08-.49,0,.26-.11-.25-.3-.18.25,0-.12-.32-.24-.36s.11-.2.18-.29c-.37.07-.45-.5-.41-.71-.39-.25-1.39-.45-1.48-.88A6.75,6.75,0,0,0,114.19.1c-.28.43-1.15.23-1.25.71-.14-.18-.14,0-.17.06s-.06-.11-.12-.12c-1.28,1-2.74,2-2.19,4.32.23.08.4.35.65.48a3.73,3.73,0,0,0,.12-1.43c.26,0,.21-.38.23-.65a4.61,4.61,0,0,1,2.14-2,5.41,5.41,0,0,1,5.73,1.08c1.9,2.76,2.28,5.44,1.31,9,0-.21-.26-.25-.23-.44-1.15-1.06-2,.33-2.55.89a6.06,6.06,0,0,0-1.24,1.36h-.24c-.13.46-.62.64-.95,1s-.48.66-.77.95c-.1.09-.24.08-.35.17s-.14.32-.24.42c-.45.43-1.08.77-1.48,1.18-.08.09-.12.3-.18.36s-.1-.09-.18,0a15.2,15.2,0,0,1-3.49,2.72,15,15,0,0,1,1.6-5c.19-.34.4-.86.53-1s.16,0,.18,0c.11-.18.27-.5.41-.77.39-.7.89-1.32.54-1.83-.44-.06-.56-.44-1.19-.3-1.32,2.47-3,5.12-3.55,8.17a2.32,2.32,0,0,0,.53,2s.19,0,.24,0,.24.28.65.23c1.09-.12,2.87-1.85,3.85-2.72.33-.3.65-.46.65-.65.6-.22.91-1,1.42-1.13-.76.93-2.14,2.74-.89,4.09,1.5.7,2.48-.73,3.5-1.25.47-.88,1.45-1.27,1.83-2.25a1.23,1.23,0,0,0,.66-1c.54-.26.77-1.25,1-1.78,0,0,0,.12.06.12.1-.56.45-.78.3-1.07.47-.47.4-1.34.71-1.77,0-.1-.19-.05-.12-.24.08,0,.08.08.18.06a1.37,1.37,0,0,1,0-.19,4.93,4.93,0,0,0,1.5.33c-.22.47-1.12,2.85-1.36,3.5s-.59.8-.75,1.27a8.47,8.47,0,0,0-.91,3.51.8.8,0,0,0,.72.7,3.79,3.79,0,0,0,1.33-.13,7.13,7.13,0,0,0,.61-.67c.78-.92,1.3-1.78,2-2.64-.07,0,.15,0,.17-.11,1-.71,1.18-2,2.2-2.7a40.81,40.81,0,0,0-2.21,6,2.53,2.53,0,0,1-.33.11c-.07.17.18,0,.11.22-.43.55-.68,1.3-1.27,1.7a.32.32,0,0,0,.06.22c-.11,0-.1.16-.28.11-.3.78-1,1.14-1.21,2a.88.88,0,0,0-.49.88c-.11-.09-.07,0-.22,0,0,.15.11.11.11.22a1.49,1.49,0,0,0-.78,1.16c-.15-.16-.13.15-.27.17a8.77,8.77,0,0,1-.88,1.76,8.75,8.75,0,0,0-.83,3.8c.34.23.39.53.94.44a1.72,1.72,0,0,1,.27-.27c.26.09.63-.36.66-.5.32-.08.47-.34.61-.61a6.29,6.29,0,0,0,1.87-3.08c.33,0,.41-.8.67-1.1,0-.15-.17-.3,0-.39,0,.07,0,.16,0,.17.06-.35.32-.77.11-.83a1.51,1.51,0,0,0,.28-.22c.06-.24-.22-.41-.06-.55,0,.14,0,.23.11.27.29-.92.53-1.62.77-2.36-.18,0-.09.11-.05.16s-.22-.29-.11-.33c.08.28.08-.06.11-.05s0,.15.11.16c0-.29.32-.55.22-.77,0,.11,0,.24-.17.22,0-.13-.1-.12-.05-.28a.2.2,0,0,1,.27,0c-.13-.4,0-.17-.05-.49.1,0,0,.21.22.16,0-.28,0-.37-.11-.38.11-.09.07,0,.22,0,.1-.29.06-.53.22-.66,0,.06-.08.08,0,.11a37,37,0,0,1,2.92-3.31c.36-.19.63-.65.93-.93,0,0,.12,0,.17,0a15.9,15.9,0,0,0,1.07-1.48c0,.2-.37.86-.37,1,0,1.24-.26,1.49-.14,2s1,1.6,2.6-.09c1.09-1.16,2.18-2.37,3-3.41,0,0,0-.19.05-.2a.27.27,0,0,0,.18-.1l.08-.11a9.88,9.88,0,0,0,.57-.88c.51-.89,1.14-1.83,1.34-1.79s-.07.28-.11.48a10.3,10.3,0,0,0-.08,3.95c0,.06.23-.08.24,0s-.18.31-.17.36a4,4,0,0,0,.74,1.62,7.33,7.33,0,0,0,1.46,1.27h.48s-.33.14-.3.17.28.05.39.11a4.34,4.34,0,0,0,.54.33c.15.06.44,0,.6,0a5.77,5.77,0,0,0,1.23.34s-.06.2.14,0a4.35,4.35,0,0,1,.63-.25c.33,0,.27.29.71.23a44,44,0,0,0,8-2,25.38,25.38,0,0,1,2.43-.9c.09,0,.24-.28.44-.47m-37.57-1.34c-.06,0-.38.26-.24.41-.61.61-1.37,1.36-2,2.07-.58.17-.84.78-1.3.72a8.23,8.23,0,0,1,1.21-2.51c.29-.72.65-.74.93-1.46.06,0,.44-.51.5-.51.3-.85.77-.77,1-1.64.47,0,.79-1.19,1.25-1.23.22-.58.71-.33,1-.77-.36,2.33-1.58,3.35-2.43,4.92m3.3,13.65a.82.82,0,0,0-.52.68c-.15-.15-.2.08-.28.17-.24-.09,0-.35-.11-.5.23.13.06-.46.39-.49,0-.81.61-1.26.88-2.15.05,0,0,.06.06.11a4.6,4.6,0,0,1,1.1-1.88,29.4,29.4,0,0,1-1.52,4.06m-34.93-23c-.74,0-1.11.6-1.48,1.13s-.4.72-.71,1.18a34.1,34.1,0,0,1-2.55,3.14,13.52,13.52,0,0,1-1.18,1.12c-.14.13-.17.36-.3.48s-.22,0-.29.06c-.24.17-.37.49-.6.71-.88.82-2.24,1.76-2.9,2.49-.08,0-.11-.09-.23-.06a8.2,8.2,0,0,1-2.49,1.83c.71-3.16,2.5-5.75,4-8.29.33-.06.43-.35.71-.47a.83.83,0,0,1,0-.54c-.32-.26-.73-.72-1.19-.59-.28.09-.6.6-.77.83a38.34,38.34,0,0,0-2.76,4.72c-1.08.83-2.38,1.8-2.87,2.13-.91.6-1,.66-1,.17A10.59,10.59,0,0,1,72.09,13a2.62,2.62,0,0,0,.62-1.46c0-.44-1-.77-1.62-.51a6.86,6.86,0,0,0-1.75,1.29c-.32.29-.72.74-1.06,1.08-.15.15-.24.18-.4.34-1.61,1.62-3.18,3.36-3.39,3.57a5.17,5.17,0,0,1-.57.58c-.55.42,1-3.31,1.76-4.21s.43-2.82-1.5-1.47a39.86,39.86,0,0,0-3.88,3.24c-.12.12-.09.19-.2.3s-.32.2-.4.28a5.26,5.26,0,0,0-.6.63c-.73,1.05.64-2.06,2.15-3.82a1.76,1.76,0,0,0,.47-.91c0-.11.15-.08,0-.3-.13-.45-.74-.57-1.41-.12-.08.06-.14.19-.23.26s-.17.08-.24.16a4.83,4.83,0,0,0-.8,1.34l-3.41,4h0A18.55,18.55,0,0,1,53.45,19c0-.11-.18,0-.14-.1a38.34,38.34,0,0,1,2.37-5.16,4.93,4.93,0,0,0,1.12-2.6c-.07,0-.06-.1-.06-.18a2.37,2.37,0,0,0-1.06-.35c-.27.22-.38.28-.65.53-.7-.38-1.23-1-2.2-.65-.7.24-1.38,1.15-1.93,1.49,0,.16-.36.47-.46.59-1.39,1.45-1.74,2.95-2.5,3.92-.08-.08-1.93,1.78-3.2,2.54.07-2.2,1.44-3.62,1.6-5.93a1.25,1.25,0,0,0-1.66-.29,26.27,26.27,0,0,0-2.61,2.49c.5-1.3,1.3-2.3,1.54-3.85a2,2,0,0,0-.77-.54l-.47-.06c-.4.09-.87.72-1.3,1s-.71.24-.77.53c-1.94,2.26-3.76,5.05-5.69,6.7.48-1.43,1.23-3,1.84-4.5,0-.08-.11-.05-.12-.12.2,0,.07-.16.29-.06a8.83,8.83,0,0,1,1.13-2.13c.08-.17,0-.41.12-.53s.41-.29.41-.54c0-.52-.64-.59-1.24-.76a27.16,27.16,0,0,0-3.77,4l0,0c-1.45,1.41-2.49,3.21-4,4.38-.14-.13.2-.31-.06-.41A5.2,5.2,0,0,0,30.35,16c.15.16.08-.11.24-.12A17.5,17.5,0,0,1,32,12.64c.37-.33.44-.76.61-1.6.31-.51-1.08-2.63-1.87-.95-.7.27-1.5-.21-2.12.14,0-.07-.51-.14-.61-.12-.81.4-.77-.11-1.77.2,0-.05-.07-.2-.17-.19.13-.28,0-.39,0-.78-.1-.21-.26-.21-.36-.47.5.08-.11-.41-.16-.55-.22-.54-.24-1.71-.82-1.87-.26-1.43-1.39-1.78-2-3.05-.16-.13-.1,0-.32,0a22,22,0,0,0-2.8-2A15.06,15.06,0,0,1,17.14.43c-.28.14-.51-.08-.82.08C16.27.36,16.1.3,15.91.28s-.3.23-.49.31c-.73-.74-2.23.12-3.13-.08-.65.46-1.83.26-2.38.78A11.69,11.69,0,0,0,5.06,3.48c-.51,0-.61.3-.82.55A5.52,5.52,0,0,0,2.1,5.51c0,.25.18.31,0,.47s-.18-.09-.33-.08c-.32.84-.86,1-1.07,1.49,0-.06,0-.16-.08-.16C.31,7.57.42,8,.29,8.4c0,0-.16-.08-.16-.08-.55,1.26.81,2.3,1.19,2.77a0,0,0,0,1,0,.05.1.1,0,0,0,0-.05s0,0,0,.05c2.3,2.38,7.76,2.31,12.25,1.95,0,.26,1.25.24,1.31-.16.28.54,1.3-.1,1.73.32.06.29-.32.17-.33.39.15,0,.19.07.16.23-.55.28-.36,1.17-.9,1.56v.39A35.4,35.4,0,0,0,12,22.62a2.57,2.57,0,0,0-.17,2c.57.54,1.25.45,2.14.24,2.86-1.83,6-3.52,8-6.25.51-.2.62-.77,1.15-.94-.06-.22.12-.2.09-.39,1.07-.79,1.34-1.93,2.22-3v-.47c.4,0,.7-1.24.57-1.8.64-.44.27-.28.6-.61a21.17,21.17,0,0,0,3.9-.08c-.25.5-1.51,3.82-1.77,4.51s-.42,1.22-.59,1.72c-.39,1.14-1.5,3.06-1.49,3.87a.85.85,0,0,0,.78.75,3.8,3.8,0,0,0,1.12-.59,6.68,6.68,0,0,0,.65-.71c.85-1,2-1.92,2.79-2.85-.08,0-.14,0-.12-.11,1.09-.76,1.57-2.14,2.66-2.91a44.61,44.61,0,0,0-2.37,6.46,1.82,1.82,0,0,1-.35.12c-.07.19.19,0,.12.23-.47.6-.74,1.4-1.36,1.84a.36.36,0,0,0,.05.24c-.11,0-.1.17-.29.12-.33.83-1.11,1.22-1.3,2.19a.93.93,0,0,0-.54.94c-.12-.1-.07,0-.23,0-.05.17.11.12.11.24a1.63,1.63,0,0,0-.83,1.24c-.17-.17-.14.16-.29.18a9.12,9.12,0,0,1-.95,1.9,9.35,9.35,0,0,0-.89,4.08c.36.24.42.57,1,.48a2.13,2.13,0,0,1,.3-.3c.27.1.66-.39.71-.53a1.1,1.1,0,0,0,.65-.65,6.89,6.89,0,0,0,2-3.32c.36-.05.43-.86.71-1.18.05-.16-.18-.33,0-.42,0,.07,0,.17.06.18.07-.37.35-.83.12-.89a1.17,1.17,0,0,0,.3-.24c.07-.25-.23-.43-.06-.59a.3.3,0,0,0,.11.3c.31-1,.58-1.75.83-2.55-.19,0-.09.12-.06.18S31.89,25,32,25c.08.31.09-.06.11-.06s0,.17.12.18c0-.31.35-.59.24-.83,0,.12,0,.26-.18.24,0-.14-.11-.13-.06-.3a.24.24,0,0,1,.3,0c-.14-.43,0-.19-.06-.53.11,0,.05.23.24.18.05-.3.05-.41-.12-.42.12-.09.07,0,.23,0,.11-.31.07-.56.24-.71,0,.07-.08.1,0,.12.84-1.35,2.27-2.43,3.14-3.55.39-.2.68-.71,1-1,0,0,.12,0,.17,0,.49-.38,1.58-2.22,1.91-2.48.7-.54,1.2-2,2-2.56-.89,2.3-2.35,4-2.54,7,.21.36.38.68.77.65s.37-.54.65-.35c.14-.45.47-.66.53-1.31.08,0,.08.08.18.06.38-.9,1.35-1.62,1.83-2.6.55-.29.79-1.19,1.31-1.31-.55,1.31-1.4,4-.24,5,.5.43.94.2,1.42-.06.72-.39,2-2.32,2.24-2.52.08-.16.07-.1.23-.23a4.36,4.36,0,0,1-.28.69c-.14.74-.11.26-.3,1.36-.1.65.52.9,1,1.16,1.91-.22,3.12-2.44,4.32-3.56-.08.79-.66,1.54-.61,2.43.1,1.57.78,1.11,1.61.86.31-.09.07-.21.25-.3a5.16,5.16,0,0,0,.82-.39c.68-.54,1.6-2,2.37-2.45l.92-1.56c.2-.22.3-.26.13.13-.49,1.11-1.68,3.57-1.62,4.14s.53,1.72,1.76.27c.1-.12.15-.33.26-.46s.26-.17.37-.31a26.56,26.56,0,0,1,4.66-5,1.67,1.67,0,0,1,.4-.19s-.07.12-.11.24a3.16,3.16,0,0,1-.31.57,12,12,0,0,0-1.71,4.45c.06.55.6,1.47,1.44.87a7.81,7.81,0,0,0,1-.86c.17-.16,0-.25.41-.5a3.41,3.41,0,0,0,.55-.45c1.33-1.35,2.93-3.08,3.71-3.89l.24-.24c.09-.09.18-.26.22-.3s.2-.08.3-.16a3.49,3.49,0,0,0,.48-.39c.38-.48.08.12-.08.32a23.13,23.13,0,0,0-1.7,3.41c0,.08.09.14,0,.23s-.23.23-.27.34a6.9,6.9,0,0,0-.35,1.3,2.33,2.33,0,0,0,0,.38c0,.14,0,.13,0,.23.25.85,1.57.37,2,0,.24-.2,1.75-1.78,3.19-3.3l-.14.86c-.23,1-.71,2.47.24,3.08.07,0,.22,0,.3,0s0,.14.12.17c.35.16.89-.12,1.3-.29A11.63,11.63,0,0,0,76.94,19a11.48,11.48,0,0,0,1.18-.95c.22-.26.14-.16.36-.3s.41-.56.65-.47,0,.31.23.41a.22.22,0,0,0,0-.17c.3.62,1.06.79,1.54,1.24.22,0,.21.07.35-.06,0,.09.09.15.12.24,1.35.09,2.93.08,3.55-.59,0,.13.15-.08.3,0-.07-1.3-.9-1.79-1.19-2.91a9.14,9.14,0,0,1-.06-2.07,2.13,2.13,0,0,0,.48-1.18c.15.15.36-.29.24-.42a1.9,1.9,0,0,0,.71-1.12.37.37,0,0,0,.23-.06,11.41,11.41,0,0,1,1.66-2.31c0-.61-.5-.6-.71-1M23.47,13.79a15.69,15.69,0,0,1-2.71,3.52c-1,1.59-2.69,2.5-3.94,3.83a1.23,1.23,0,0,0-.91.62c-.59,0-.87.46-1.55.39A38,38,0,0,0,16.82,17c.39.25.18-.91.49-.55.46-1.44,1.05-2.07,1.56-3.52.65-.24,1.7,0,2.38-.23.09,0,.28-.29.41-.31.54-.1,1.51.25,1.48-.16,0-.1.61.12.66-.16a2.28,2.28,0,0,1-.33,1.72m-3.61-2.73a42,42,0,0,0,1.72-4.69c-.15-.9-1-1.11-2-1.17a1.39,1.39,0,0,0-.33.55,40.11,40.11,0,0,1-1.81,5.62c-2,.25-4.09.14-5.75.39A55,55,0,0,1,5,11.21c-.17,0-.24.11-.33.08s-.19-.2-.41-.31-.92-.16-1.23-.39c0,0,0-.2,0-.23s-.38-.13-.41-.16A2.6,2.6,0,0,1,2,8.4c.22.21.06-.12.33-.08.07-.71.89-1.19.82-1.56.07,0,.08.08.17.08A13.22,13.22,0,0,1,6.62,4.42c.12,0,0-.1,0-.24.61,0,1.52-.77,1.56-.7A16.51,16.51,0,0,0,10.9,2.31c.13,0-.07.14.08.15s.51-.24.74-.39c.09,0,0,.08,0,.08,1.14-.18,2.54-.25,4.11-.47.79.42,1.74.35,2.55.71.51.23.91.66,1.31.86.09,0,.28-.06.25-.08a3.08,3.08,0,0,1,.66.62,9.79,9.79,0,0,1,1.72,1.49,10.54,10.54,0,0,1,1.89,5.39c-1.58.05-2.78.48-4.35.39M28,31.64a.91.91,0,0,0-.42.77c-.15-.15-.21.09-.29.18-.26-.09,0-.37-.12-.53.24.14.06-.49.41-.53,0-.87.65-1.35.95-2.31.06,0,.05.07.06.12a5,5,0,0,1,1.19-2c-.39,2-1.22,3-1.78,4.32M52.89,14s0,.18,0,.24c-.29.42-.86.9-1.12,1.3a1.71,1.71,0,0,1-.3.41,19.67,19.67,0,0,1-2.66,2.91c.22-1.18,1.38-2.8,1.87-4.05a4.85,4.85,0,0,0,.89-1.19c.63-.49,1.28-1.48,2.33-1.75.58.43-.32,1.23-.65,1.72a3.5,3.5,0,0,0-.36.41m28.19,3.34c-.09.07-.12.19-.29.18-.12-.33-1.11-.19-1.19-.83a23.49,23.49,0,0,0,2.73-2.49,7.92,7.92,0,0,0,1.06,3.2,2.13,2.13,0,0,1-2.31-.06m-33.68,1v0s0,0,0,0m64.06-9.65c0-.19.2-.08.24-.17.14-.7-.76-.65-.65-1.13,0-.12.26,0,.3-.12.24-1.09-2.12-1.76-2.25-.71s1.42,2.43,2.36,2.13M81.32,3.58c.06-.08.1-.18.18-.23s.13.06.23,0c0-.28-.1-.4-.06-.71-.27-.28-.46-.64-1-.65V1.86c-.81-.24-2.49-.71-2,.83a5.22,5.22,0,0,0,2.67.89m18.77,12.5c0-.22.13-.23.12-.42-.27.05-.24-.06-.18-.23-1.85.39-4.77,1.68-6.81,1.95-1.07.14-3.29,1-3.43-.42-.09-.9.66-1,.65-1.53h.18c.52-1,1.9-1.82,2.72-2.67.41-.42,1.13-1.08,1.19-1.42.08-.59-.48-.5-.54-.95a4,4,0,0,0-2.54.83c-.44.32-.66.84-.83.89-.34.09-.32.42-.6.65,0,0-.19,0-.23.06s0,.23-.06.3-.11-.07-.18,0c-.37.36-.44,1.05-1,1.24-.13-.21.41-.83.12-.83.9-1.61,1.31-3.41,2-4.8a30.58,30.58,0,0,1,3.73-6c1.23-.11.33-2-.77-1.71a37.42,37.42,0,0,0-5,8.58c-.67,1.6-1.23,3.62-1.83,5.33a20.6,20.6,0,0,0-.89,3.2c-.25,1.29-.64,2.33.41,2.66a1.29,1.29,0,0,0,.36-.41c.19,0,.08.19.24.18.29-.65.46-1.62.71-2.13.18.14.54-1.14.83-1.25a3.89,3.89,0,0,0,1.12,1.54c1.35.74,3.41.18,5-.29A13.4,13.4,0,0,0,97,17.5a12.42,12.42,0,0,0,2.67-.83c0-.28.22-.25.35-.36,0,.22-.25.11-.29.24.34,0,.83-.34.59-.53.09.16-.26.16-.24.06m-66.9-1.55.08-.09a.12.12,0,0,0-.08.09m92.93-.1.07-.08a.14.14,0,0,0-.07.08"/><path class="cls-1" d="M40.22,27h0a1.84,1.84,0,0,0-1.2-.5c-.57,0-.85.26-.85.74,0,1.16,2.39,1,2.39,2.75,0,1.08-.78,1.51-1.86,1.51a3.2,3.2,0,0,1-1.39-.26v-.76h0a2.13,2.13,0,0,0,1.44.58c.49,0,.93-.19.93-.83,0-1.27-2.38-1.13-2.38-2.8,0-.85.6-1.35,1.76-1.35a2.78,2.78,0,0,1,1.16.2"/><polyline class="cls-1" points="44.66 26.61 43.19 26.61 43.19 31.4 42.29 31.4 42.29 26.61 40.82 26.61 40.82 26.16 44.66 26.16"/><path class="cls-1" d="M45.33,26.16h1.33c.65,0,2.17,0,2.17,1.38A1.48,1.48,0,0,1,47.57,29L49,31.4H48L46.7,29.11h-.46V31.4h-.91m.91-2.72h.44c.61,0,1.2-.19,1.2-1.06s-.49-1.06-1.18-1.06a2.6,2.6,0,0,0-.46,0Z"/><path class="cls-1" d="M52.45,29.9h-2l-.53,1.5h-.56l1.92-5.24H52l1.9,5.24H53m-2.62-6.23a.44.44,0,0,1,.44-.45.45.45,0,1,1,0,.9.43.43,0,0,1-.44-.45m.26,4.26h1.66l-.83-2.3h0ZM52,25.17a.44.44,0,0,1,.45-.45.45.45,0,0,1,0,.9.44.44,0,0,1-.45-.45"/><polyline class="cls-1" points="54.64 26.16 55.69 26.16 58.11 30.36 58.12 30.36 58.12 26.16 58.65 26.16 58.65 31.4 57.73 31.4 55.19 27.01 55.17 27.01 55.17 31.4 54.64 31.4"/><path class="cls-1" d="M63.81,31.16a6,6,0,0,1-1.82.33c-1.57,0-2.29-1.16-2.29-2.68s.76-2.74,2.5-2.74a4,4,0,0,1,1.38.2V27h0a2,2,0,0,0-1.42-.53c-1.21,0-1.48,1.21-1.48,2.2,0,1.35.4,2.37,1.51,2.37a1.75,1.75,0,0,0,.74-.13v-2h.9"/><polyline class="cls-1" points="64.94 26.16 65.99 26.16 68.41 30.36 68.42 30.36 68.42 26.16 68.95 26.16 68.95 31.4 68.03 31.4 65.49 27.01 65.47 27.01 65.47 31.4 64.94 31.4"/><path class="cls-1" d="M72.74,29.9h-2l-.53,1.5h-.56l1.92-5.24h.74l1.9,5.24h-.94m-2.62-6.23a.44.44,0,0,1,.44-.45.45.45,0,1,1,0,.9.43.43,0,0,1-.44-.45m.26,4.26h1.66l-.83-2.3h0Zm1.41-4.26a.44.44,0,0,1,.45-.45.45.45,0,0,1,0,.9.44.44,0,0,1-.45-.45"/><path class="cls-1" d="M77.63,27h0a1.84,1.84,0,0,0-1.2-.5c-.58,0-.86.26-.86.74,0,1.16,2.4,1,2.4,2.75,0,1.08-.79,1.51-1.87,1.51a3.24,3.24,0,0,1-1.39-.26v-.76h0a2.11,2.11,0,0,0,1.44.58c.49,0,.92-.19.92-.83,0-1.27-2.38-1.13-2.38-2.8,0-.85.6-1.35,1.77-1.35a2.78,2.78,0,0,1,1.16.2"/><polyline class="cls-1" points="81.41 26.16 82.32 26.16 82.32 28.67 82.33 28.67 84.34 26.16 85.03 26.16 83.14 28.44 85.24 31.4 84.15 31.4 82.33 28.76 82.32 28.76 82.32 31.4 81.41 31.4"/><path class="cls-1" d="M87.78,26.07c1.59,0,2.3,1.21,2.3,2.7s-.71,2.72-2.3,2.72-2.29-1.22-2.29-2.72.7-2.7,2.29-2.7m0,5c.92,0,1.32-.93,1.32-2.19s-.41-2.38-1.34-2.38c-1.14,0-1.32,1.41-1.32,2.32,0,1.29.43,2.25,1.34,2.25"/><polyline class="cls-1" points="91.11 26.16 92.34 26.16 93.78 30.37 93.8 30.37 95.2 26.16 96.4 26.16 96.4 31.4 95.54 31.4 95.54 26.76 95.52 26.76 93.92 31.4 93.25 31.4 91.67 26.8 91.65 26.8 91.65 31.4 91.11 31.4"/><polyline class="cls-1" points="97.74 26.16 98.97 26.16 100.41 30.37 100.43 30.37 101.83 26.16 103.03 26.16 103.03 31.4 102.16 31.4 102.16 26.76 102.15 26.76 100.55 31.4 99.88 31.4 98.29 26.8 98.28 26.8 98.28 31.4 97.74 31.4"/><path class="cls-1" d="M108.13,29.33c0,1.1-.15,2.16-1.84,2.16-1.43,0-2-.65-2-2V26.16h.91v3c0,1,0,1.89,1.16,1.89s1.15-.85,1.15-1.75V26.16h.57"/><polyline class="cls-1" points="109.4 26.16 110.45 26.16 112.87 30.36 112.88 30.36 112.88 26.16 113.41 26.16 113.41 31.4 112.49 31.4 109.95 27.01 109.93 27.01 109.93 31.4 109.4 31.4"/></svg>